<?xml version='1.0' encoding='utf-8'?>
<svg xmlns="http://www.w3.org/2000/svg" xmlns:inkscape="http://www.inkscape.org/namespaces/inkscape" viewBox="0 0 1200 780" width="1200" height="780" role="img" aria-labelledby="art-title art-desc">
  <title>运河水面 — Layered Redraw layer</title>
  <defs>
    <linearGradient id="sky-gradient" x1="0" y1="0" x2="0.8" y2="1">
      <stop offset="0" stop-color="#dce3e3" />
      <stop offset="0.55" stop-color="#eee8dc" />
      <stop offset="1" stop-color="#d7c8b3" />
    </linearGradient>
    <linearGradient id="water-gradient" x1="0" y1="0" x2="0.9" y2="1">
      <stop offset="0" stop-color="#86958a" />
      <stop offset="0.56" stop-color="#60786f" />
      <stop offset="1" stop-color="#283e3d" />
    </linearGradient>
    <linearGradient id="brick-gradient" x1="0" y1="0" x2="1" y2="1">
      <stop offset="0" stop-color="#6f463d" />
      <stop offset="0.65" stop-color="#4e302d" />
      <stop offset="1" stop-color="#342626" />
    </linearGradient>
    <linearGradient id="walk-gradient" x1="0" y1="0" x2="1" y2="0.4">
      <stop offset="0" stop-color="#b9b0a3" />
      <stop offset="1" stop-color="#706d67" />
    </linearGradient>
    <radialGradient id="window-glow">
      <stop offset="0" stop-color="#ffe1a0" stop-opacity="0.95" />
      <stop offset="1" stop-color="#d59452" stop-opacity="0.12" />
    </radialGradient>
    <filter id="soft-glow" x="-80%" y="-80%" width="260%" height="260%">
      <feGaussianBlur stdDeviation="8" />
    </filter>
    <pattern id="water-hatch" width="36" height="20" patternUnits="userSpaceOnUse">
      <path d="M2 12 C10 8 20 15 34 9" fill="none" stroke="#d7ded2" stroke-opacity="0.2" stroke-width="2" />
    </pattern>
  </defs>
  <g id="layer-canal" data-layer="true" data-bbox="190 468 1010 312" inkscape:groupmode="layer" inkscape:label="运河水面">
    <path id="water-surface" d="M205 480 L600 448 L1200 508 L1200 780 L320 780 Z" fill="url(#water-gradient)" />
    <path id="water-soft-bank" d="M215 488 C500 505 740 475 1200 536" fill="none" stroke="#a5b49d" stroke-width="18" opacity="0.2" />
    <path id="water-hatch-field" d="M235 502 L598 470 L1200 527 L1200 780 L332 780 Z" fill="url(#water-hatch)" opacity="0.75" />
  </g>
</svg>